<mxfile host="app.diagrams.net" modified="2024-01-24T21:22:28.722Z" agent="Mozilla/5.0 (Macintosh; Intel Mac OS X 10.15; rv:121.0) Gecko/20100101 Firefox/121.0" etag="1DPQk8pY0QB0LcLp2MAP" version="23.0.1" type="device">
  <diagram name="Page-1" id="TJ2gRcn6DphsuC9ekWZ9">
    <mxGraphModel dx="2680" dy="1207" grid="1" gridSize="10" guides="1" tooltips="1" connect="1" arrows="1" fold="1" page="1" pageScale="1" pageWidth="850" pageHeight="1100" math="0" shadow="0">
      <root>
        <mxCell id="0" />
        <mxCell id="1" parent="0" />
        <mxCell id="n6rH_P_T9cfDyiBXCp7v-1" value="&lt;div&gt;&lt;br&gt;&lt;/div&gt;&lt;div&gt;&lt;br&gt;&lt;/div&gt;&lt;div&gt;&lt;br&gt;&lt;/div&gt;&lt;div&gt;&lt;br&gt;&lt;/div&gt;&lt;div&gt;&lt;br&gt;&lt;/div&gt;&lt;div&gt;&lt;br&gt;&lt;/div&gt;&lt;div&gt;&lt;br&gt;&lt;/div&gt;&lt;div&gt;&lt;br&gt;&lt;/div&gt;&lt;div&gt;&lt;br&gt;&lt;/div&gt;&lt;div&gt;&lt;br&gt;&lt;/div&gt;&lt;div&gt;&lt;br&gt;&lt;/div&gt;&lt;div&gt;&lt;br&gt;&lt;/div&gt;&lt;div&gt;&lt;br&gt;&lt;/div&gt;&lt;div&gt;&lt;br&gt;&lt;/div&gt;&lt;div&gt;&lt;br&gt;&lt;/div&gt;&lt;div&gt;&lt;br&gt;&lt;/div&gt;&lt;div&gt;&lt;br&gt;&lt;/div&gt;&lt;div&gt;&lt;br&gt;&lt;/div&gt;&lt;div&gt;&lt;br&gt;&lt;/div&gt;&lt;div&gt;&lt;br&gt;&lt;/div&gt;&lt;div&gt;&lt;br&gt;&lt;/div&gt;&lt;div&gt;&lt;br&gt;&lt;/div&gt;&lt;div&gt;&lt;br&gt;&lt;/div&gt;&lt;div&gt;&lt;br&gt;&lt;/div&gt;&lt;div&gt;&lt;br&gt;&lt;/div&gt;&lt;div&gt;&lt;br&gt;&lt;/div&gt;&lt;div&gt;&lt;br&gt;&lt;/div&gt;&lt;div&gt;&lt;br&gt;&lt;/div&gt;&lt;div&gt;&lt;br&gt;&lt;/div&gt;&lt;div&gt;&lt;br&gt;&lt;/div&gt;&lt;div&gt;&lt;br&gt;&lt;/div&gt;&lt;div&gt;&lt;br&gt;&lt;/div&gt;&lt;div&gt;&lt;br&gt;&lt;/div&gt;&lt;div&gt;&lt;br&gt;&lt;/div&gt;&lt;div&gt;&lt;br&gt;&lt;/div&gt;&lt;div&gt;&lt;br&gt;&lt;/div&gt;&lt;div&gt;&lt;br&gt;&lt;/div&gt;&lt;div&gt;&lt;br&gt;&lt;/div&gt;&lt;div&gt;&lt;br&gt;&lt;/div&gt;&lt;div&gt;&lt;br&gt;&lt;/div&gt;&lt;div&gt;&lt;br&gt;&lt;/div&gt;&lt;div&gt;&lt;br&gt;&lt;/div&gt;&lt;div&gt;&lt;br&gt;&lt;/div&gt;&lt;div&gt;&lt;br&gt;&lt;/div&gt;&lt;div&gt;&lt;br&gt;&lt;/div&gt;&lt;div&gt;&lt;br&gt;&lt;/div&gt;&lt;div&gt;&lt;br&gt;&lt;/div&gt;&lt;div&gt;&lt;br&gt;&lt;/div&gt;&lt;div&gt;&lt;br&gt;&lt;/div&gt;&lt;div&gt;&lt;br&gt;&lt;/div&gt;&lt;div&gt;&lt;br&gt;&lt;/div&gt;&lt;div&gt;&lt;br&gt;&lt;/div&gt;&lt;div&gt;&lt;br&gt;&lt;/div&gt;&lt;div&gt;&lt;br&gt;&lt;/div&gt;&lt;div&gt;&lt;br&gt;&lt;/div&gt;&lt;div&gt;&lt;br&gt;&lt;/div&gt;&lt;div&gt;&lt;br&gt;&lt;/div&gt;&lt;div&gt;&lt;br&gt;&lt;/div&gt;&lt;div&gt;&lt;br&gt;&lt;/div&gt;&lt;div&gt;&lt;br&gt;&lt;/div&gt;&lt;div&gt;&lt;br&gt;&lt;/div&gt;&lt;div&gt;&lt;br&gt;&lt;/div&gt;&lt;div&gt;&lt;br&gt;&lt;/div&gt;&lt;div&gt;&lt;br&gt;&lt;/div&gt;&lt;div&gt;&lt;br&gt;&lt;/div&gt;&lt;div&gt;&lt;br&gt;&lt;/div&gt;&lt;div&gt;&lt;br&gt;&lt;/div&gt;&lt;div&gt;&lt;br&gt;&lt;/div&gt;&lt;div&gt;&lt;br&gt;&lt;/div&gt;&lt;div&gt;&lt;br&gt;&lt;/div&gt;&lt;div&gt;&lt;br&gt;&lt;/div&gt;&lt;div&gt;&lt;br&gt;&lt;/div&gt;&lt;div&gt;&lt;br&gt;&lt;/div&gt;&lt;div&gt;&lt;br&gt;&lt;/div&gt;&lt;div&gt;&lt;br&gt;&lt;/div&gt;&lt;div&gt;&lt;br&gt;&lt;/div&gt;&lt;div&gt;&lt;br&gt;&lt;/div&gt;&lt;div&gt;&lt;br&gt;&lt;/div&gt;&lt;div&gt;&lt;br&gt;&lt;/div&gt;&lt;div&gt;&lt;br&gt;&lt;/div&gt;&lt;div&gt;&lt;br&gt;&lt;/div&gt;&lt;div&gt;&lt;br&gt;&lt;/div&gt;&lt;div&gt;&lt;br&gt;&lt;/div&gt;&lt;div&gt;&lt;br&gt;&lt;/div&gt;&lt;div&gt;&lt;br&gt;&lt;/div&gt;&lt;div&gt;&lt;br&gt;&lt;/div&gt;&lt;div&gt;&lt;br&gt;&lt;/div&gt;&lt;div&gt;&lt;br&gt;&lt;/div&gt;&lt;div&gt;&lt;br&gt;&lt;/div&gt;&lt;div&gt;&lt;br&gt;&lt;/div&gt;&lt;div&gt;&lt;br&gt;&lt;/div&gt;&lt;div&gt;&lt;br&gt;&lt;/div&gt;&lt;div&gt;&lt;font style=&quot;font-size: 35px;&quot;&gt;Canvas Class&lt;/font&gt;&lt;br&gt;&lt;/div&gt;" style="whiteSpace=wrap;html=1;aspect=fixed;" vertex="1" parent="1">
          <mxGeometry x="-690" y="95" width="1390" height="1390" as="geometry" />
        </mxCell>
        <mxCell id="n6rH_P_T9cfDyiBXCp7v-18" value="" style="edgeStyle=orthogonalEdgeStyle;rounded=0;orthogonalLoop=1;jettySize=auto;html=1;entryX=0;entryY=0.5;entryDx=0;entryDy=0;" edge="1" parent="1" source="n6rH_P_T9cfDyiBXCp7v-2" target="n6rH_P_T9cfDyiBXCp7v-11">
          <mxGeometry relative="1" as="geometry">
            <mxPoint x="200" y="610" as="targetPoint" />
          </mxGeometry>
        </mxCell>
        <mxCell id="n6rH_P_T9cfDyiBXCp7v-2" value="Add Student To Course" style="whiteSpace=wrap;html=1;aspect=fixed;" vertex="1" parent="1">
          <mxGeometry x="-80" y="570" width="80" height="80" as="geometry" />
        </mxCell>
        <mxCell id="n6rH_P_T9cfDyiBXCp7v-37" value="" style="edgeStyle=orthogonalEdgeStyle;rounded=0;orthogonalLoop=1;jettySize=auto;html=1;entryX=0;entryY=0.5;entryDx=0;entryDy=0;" edge="1" parent="1" source="n6rH_P_T9cfDyiBXCp7v-3" target="n6rH_P_T9cfDyiBXCp7v-33">
          <mxGeometry relative="1" as="geometry">
            <mxPoint x="-90" y="940" as="targetPoint" />
          </mxGeometry>
        </mxCell>
        <mxCell id="n6rH_P_T9cfDyiBXCp7v-3" value="Add Course" style="whiteSpace=wrap;html=1;aspect=fixed;" vertex="1" parent="1">
          <mxGeometry x="-250" y="900" width="80" height="80" as="geometry" />
        </mxCell>
        <mxCell id="n6rH_P_T9cfDyiBXCp7v-43" value="" style="edgeStyle=orthogonalEdgeStyle;rounded=0;orthogonalLoop=1;jettySize=auto;html=1;entryX=0;entryY=0.75;entryDx=0;entryDy=0;" edge="1" parent="1" source="n6rH_P_T9cfDyiBXCp7v-4" target="n6rH_P_T9cfDyiBXCp7v-33">
          <mxGeometry relative="1" as="geometry">
            <mxPoint x="-90" y="1020" as="targetPoint" />
          </mxGeometry>
        </mxCell>
        <mxCell id="n6rH_P_T9cfDyiBXCp7v-4" value="Search For Course" style="whiteSpace=wrap;html=1;aspect=fixed;" vertex="1" parent="1">
          <mxGeometry x="-250" y="980" width="80" height="80" as="geometry" />
        </mxCell>
        <mxCell id="n6rH_P_T9cfDyiBXCp7v-22" value="" style="edgeStyle=orthogonalEdgeStyle;rounded=0;orthogonalLoop=1;jettySize=auto;html=1;entryX=-0.05;entryY=0.875;entryDx=0;entryDy=0;entryPerimeter=0;" edge="1" parent="1" source="n6rH_P_T9cfDyiBXCp7v-5" target="n6rH_P_T9cfDyiBXCp7v-11">
          <mxGeometry relative="1" as="geometry">
            <mxPoint x="200" y="690" as="targetPoint" />
          </mxGeometry>
        </mxCell>
        <mxCell id="n6rH_P_T9cfDyiBXCp7v-5" value="List All Courses" style="whiteSpace=wrap;html=1;aspect=fixed;" vertex="1" parent="1">
          <mxGeometry x="-80" y="650" width="80" height="80" as="geometry" />
        </mxCell>
        <mxCell id="n6rH_P_T9cfDyiBXCp7v-20" value="" style="edgeStyle=orthogonalEdgeStyle;rounded=0;orthogonalLoop=1;jettySize=auto;html=1;entryX=0.038;entryY=0.113;entryDx=0;entryDy=0;entryPerimeter=0;" edge="1" parent="1" source="n6rH_P_T9cfDyiBXCp7v-6" target="n6rH_P_T9cfDyiBXCp7v-11">
          <mxGeometry relative="1" as="geometry">
            <mxPoint x="200" y="530" as="targetPoint" />
          </mxGeometry>
        </mxCell>
        <mxCell id="n6rH_P_T9cfDyiBXCp7v-35" value="" style="edgeStyle=orthogonalEdgeStyle;rounded=0;orthogonalLoop=1;jettySize=auto;html=1;" edge="1" parent="1" source="n6rH_P_T9cfDyiBXCp7v-6" target="n6rH_P_T9cfDyiBXCp7v-33">
          <mxGeometry relative="1" as="geometry">
            <mxPoint x="-50" y="970" as="targetPoint" />
          </mxGeometry>
        </mxCell>
        <mxCell id="n6rH_P_T9cfDyiBXCp7v-6" value="Remove Student From Course" style="whiteSpace=wrap;html=1;aspect=fixed;" vertex="1" parent="1">
          <mxGeometry x="-80" y="490" width="80" height="80" as="geometry" />
        </mxCell>
        <mxCell id="n6rH_P_T9cfDyiBXCp7v-39" value="" style="edgeStyle=orthogonalEdgeStyle;rounded=0;orthogonalLoop=1;jettySize=auto;html=1;" edge="1" parent="1" source="n6rH_P_T9cfDyiBXCp7v-7" target="n6rH_P_T9cfDyiBXCp7v-30">
          <mxGeometry relative="1" as="geometry">
            <mxPoint x="450" y="940" as="targetPoint" />
          </mxGeometry>
        </mxCell>
        <mxCell id="n6rH_P_T9cfDyiBXCp7v-7" value="Create Student" style="whiteSpace=wrap;html=1;aspect=fixed;" vertex="1" parent="1">
          <mxGeometry x="530" y="900" width="80" height="80" as="geometry" />
        </mxCell>
        <mxCell id="n6rH_P_T9cfDyiBXCp7v-41" value="" style="edgeStyle=orthogonalEdgeStyle;rounded=0;orthogonalLoop=1;jettySize=auto;html=1;entryX=0;entryY=0.25;entryDx=0;entryDy=0;" edge="1" parent="1" source="n6rH_P_T9cfDyiBXCp7v-8" target="n6rH_P_T9cfDyiBXCp7v-33">
          <mxGeometry relative="1" as="geometry">
            <mxPoint x="-90" y="860" as="targetPoint" />
          </mxGeometry>
        </mxCell>
        <mxCell id="n6rH_P_T9cfDyiBXCp7v-8" value="Search Course By Description" style="whiteSpace=wrap;html=1;aspect=fixed;" vertex="1" parent="1">
          <mxGeometry x="-250" y="820" width="80" height="80" as="geometry" />
        </mxCell>
        <mxCell id="n6rH_P_T9cfDyiBXCp7v-49" value="" style="edgeStyle=orthogonalEdgeStyle;rounded=0;orthogonalLoop=1;jettySize=auto;html=1;entryX=1;entryY=0.25;entryDx=0;entryDy=0;" edge="1" parent="1" source="n6rH_P_T9cfDyiBXCp7v-9" target="n6rH_P_T9cfDyiBXCp7v-30">
          <mxGeometry relative="1" as="geometry">
            <mxPoint x="450" y="860" as="targetPoint" />
          </mxGeometry>
        </mxCell>
        <mxCell id="n6rH_P_T9cfDyiBXCp7v-9" value="List All Students" style="whiteSpace=wrap;html=1;aspect=fixed;" vertex="1" parent="1">
          <mxGeometry x="530" y="820" width="80" height="80" as="geometry" />
        </mxCell>
        <mxCell id="n6rH_P_T9cfDyiBXCp7v-55" value="" style="edgeStyle=orthogonalEdgeStyle;rounded=0;orthogonalLoop=1;jettySize=auto;html=1;entryX=0.75;entryY=0.083;entryDx=0;entryDy=0;entryPerimeter=0;" edge="1" parent="1" source="n6rH_P_T9cfDyiBXCp7v-10" target="n6rH_P_T9cfDyiBXCp7v-30">
          <mxGeometry relative="1" as="geometry">
            <mxPoint x="450" y="780" as="targetPoint" />
          </mxGeometry>
        </mxCell>
        <mxCell id="n6rH_P_T9cfDyiBXCp7v-10" value="Get Student By Name" style="whiteSpace=wrap;html=1;aspect=fixed;" vertex="1" parent="1">
          <mxGeometry x="530" y="740" width="80" height="80" as="geometry" />
        </mxCell>
        <mxCell id="n6rH_P_T9cfDyiBXCp7v-31" value="" style="edgeStyle=orthogonalEdgeStyle;rounded=0;orthogonalLoop=1;jettySize=auto;html=1;" edge="1" parent="1" source="n6rH_P_T9cfDyiBXCp7v-11" target="n6rH_P_T9cfDyiBXCp7v-30">
          <mxGeometry relative="1" as="geometry" />
        </mxCell>
        <mxCell id="n6rH_P_T9cfDyiBXCp7v-11" value="Get Student (Getter by list)" style="whiteSpace=wrap;html=1;aspect=fixed;" vertex="1" parent="1">
          <mxGeometry x="240" y="570" width="80" height="80" as="geometry" />
        </mxCell>
        <mxCell id="n6rH_P_T9cfDyiBXCp7v-53" value="" style="edgeStyle=orthogonalEdgeStyle;rounded=0;orthogonalLoop=1;jettySize=auto;html=1;entryX=0.173;entryY=1.017;entryDx=0;entryDy=0;entryPerimeter=0;" edge="1" parent="1" source="n6rH_P_T9cfDyiBXCp7v-12" target="n6rH_P_T9cfDyiBXCp7v-33">
          <mxGeometry relative="1" as="geometry">
            <mxPoint x="-90" y="1100" as="targetPoint" />
          </mxGeometry>
        </mxCell>
        <mxCell id="n6rH_P_T9cfDyiBXCp7v-12" value="- Select Course" style="whiteSpace=wrap;html=1;aspect=fixed;" vertex="1" parent="1">
          <mxGeometry x="-250" y="1060" width="80" height="80" as="geometry" />
        </mxCell>
        <mxCell id="n6rH_P_T9cfDyiBXCp7v-45" value="" style="edgeStyle=orthogonalEdgeStyle;rounded=0;orthogonalLoop=1;jettySize=auto;html=1;" edge="1" parent="1" source="n6rH_P_T9cfDyiBXCp7v-13" target="n6rH_P_T9cfDyiBXCp7v-30">
          <mxGeometry relative="1" as="geometry">
            <mxPoint x="450" y="1020" as="targetPoint" />
            <Array as="points">
              <mxPoint x="290" y="1020" />
            </Array>
          </mxGeometry>
        </mxCell>
        <mxCell id="n6rH_P_T9cfDyiBXCp7v-47" value="" style="edgeStyle=orthogonalEdgeStyle;rounded=0;orthogonalLoop=1;jettySize=auto;html=1;" edge="1" parent="1" source="n6rH_P_T9cfDyiBXCp7v-13" target="n6rH_P_T9cfDyiBXCp7v-33">
          <mxGeometry relative="1" as="geometry">
            <mxPoint x="100" y="1010" as="targetPoint" />
            <Array as="points">
              <mxPoint x="316" y="1020" />
              <mxPoint x="316" y="1060" />
              <mxPoint x="100" y="1060" />
            </Array>
          </mxGeometry>
        </mxCell>
        <mxCell id="n6rH_P_T9cfDyiBXCp7v-13" value="View Student Grades" style="whiteSpace=wrap;html=1;aspect=fixed;" vertex="1" parent="1">
          <mxGeometry x="530" y="980" width="80" height="80" as="geometry" />
        </mxCell>
        <mxCell id="n6rH_P_T9cfDyiBXCp7v-25" value="" style="edgeStyle=orthogonalEdgeStyle;rounded=0;orthogonalLoop=1;jettySize=auto;html=1;entryX=0;entryY=0.5;entryDx=0;entryDy=0;" edge="1" parent="1" source="n6rH_P_T9cfDyiBXCp7v-14" target="n6rH_P_T9cfDyiBXCp7v-23">
          <mxGeometry relative="1" as="geometry">
            <mxPoint x="-427" y="550" as="targetPoint" />
          </mxGeometry>
        </mxCell>
        <mxCell id="n6rH_P_T9cfDyiBXCp7v-14" value="Set Assignment Grade" style="whiteSpace=wrap;html=1;aspect=fixed;" vertex="1" parent="1">
          <mxGeometry x="-587" y="510" width="80" height="80" as="geometry" />
        </mxCell>
        <mxCell id="n6rH_P_T9cfDyiBXCp7v-51" value="" style="edgeStyle=orthogonalEdgeStyle;rounded=0;orthogonalLoop=1;jettySize=auto;html=1;entryX=0.131;entryY=0.006;entryDx=0;entryDy=0;entryPerimeter=0;" edge="1" parent="1" source="n6rH_P_T9cfDyiBXCp7v-15" target="n6rH_P_T9cfDyiBXCp7v-33">
          <mxGeometry relative="1" as="geometry">
            <mxPoint x="-90" y="780" as="targetPoint" />
          </mxGeometry>
        </mxCell>
        <mxCell id="n6rH_P_T9cfDyiBXCp7v-15" value="View Course Info" style="whiteSpace=wrap;html=1;aspect=fixed;" vertex="1" parent="1">
          <mxGeometry x="-250" y="740" width="80" height="80" as="geometry" />
        </mxCell>
        <mxCell id="n6rH_P_T9cfDyiBXCp7v-16" value="- Assignment Prompt" style="whiteSpace=wrap;html=1;aspect=fixed;" vertex="1" parent="1">
          <mxGeometry x="-587" y="750" width="80" height="80" as="geometry" />
        </mxCell>
        <mxCell id="n6rH_P_T9cfDyiBXCp7v-64" value="" style="edgeStyle=orthogonalEdgeStyle;rounded=0;orthogonalLoop=1;jettySize=auto;html=1;" edge="1" parent="1" source="n6rH_P_T9cfDyiBXCp7v-23">
          <mxGeometry relative="1" as="geometry">
            <mxPoint x="-322" y="380" as="targetPoint" />
          </mxGeometry>
        </mxCell>
        <mxCell id="n6rH_P_T9cfDyiBXCp7v-78" value="" style="edgeStyle=orthogonalEdgeStyle;rounded=0;orthogonalLoop=1;jettySize=auto;html=1;entryX=0.75;entryY=1;entryDx=0;entryDy=0;" edge="1" parent="1" source="n6rH_P_T9cfDyiBXCp7v-23" target="n6rH_P_T9cfDyiBXCp7v-33">
          <mxGeometry relative="1" as="geometry">
            <mxPoint x="-320" y="650" as="targetPoint" />
            <Array as="points">
              <mxPoint x="-126" y="550" />
              <mxPoint x="-126" y="1140" />
              <mxPoint x="70" y="1140" />
              <mxPoint x="70" y="1000" />
            </Array>
          </mxGeometry>
        </mxCell>
        <mxCell id="n6rH_P_T9cfDyiBXCp7v-23" value="&lt;div style=&quot;font-size: 13px;&quot;&gt;&lt;font style=&quot;font-size: 15px;&quot;&gt;Assignment&lt;/font&gt;&lt;/div&gt;" style="whiteSpace=wrap;html=1;aspect=fixed;fillColor=#dae8fc;strokeColor=#6c8ebf;" vertex="1" parent="1">
          <mxGeometry x="-382" y="490" width="120" height="120" as="geometry" />
        </mxCell>
        <mxCell id="n6rH_P_T9cfDyiBXCp7v-27" value="" style="edgeStyle=orthogonalEdgeStyle;rounded=0;orthogonalLoop=1;jettySize=auto;html=1;" edge="1" parent="1" source="n6rH_P_T9cfDyiBXCp7v-26">
          <mxGeometry relative="1" as="geometry">
            <mxPoint x="-547" y="750" as="targetPoint" />
          </mxGeometry>
        </mxCell>
        <mxCell id="n6rH_P_T9cfDyiBXCp7v-29" value="" style="edgeStyle=orthogonalEdgeStyle;rounded=0;orthogonalLoop=1;jettySize=auto;html=1;entryX=-0.008;entryY=0.842;entryDx=0;entryDy=0;entryPerimeter=0;" edge="1" parent="1" source="n6rH_P_T9cfDyiBXCp7v-26" target="n6rH_P_T9cfDyiBXCp7v-23">
          <mxGeometry relative="1" as="geometry">
            <mxPoint x="-427" y="630" as="targetPoint" />
          </mxGeometry>
        </mxCell>
        <mxCell id="n6rH_P_T9cfDyiBXCp7v-26" value="&lt;div&gt;Create Assignment&lt;/div&gt;" style="whiteSpace=wrap;html=1;aspect=fixed;" vertex="1" parent="1">
          <mxGeometry x="-587" y="590" width="80" height="80" as="geometry" />
        </mxCell>
        <mxCell id="n6rH_P_T9cfDyiBXCp7v-76" value="" style="edgeStyle=orthogonalEdgeStyle;rounded=0;orthogonalLoop=1;jettySize=auto;html=1;" edge="1" parent="1" source="n6rH_P_T9cfDyiBXCp7v-30" target="n6rH_P_T9cfDyiBXCp7v-33">
          <mxGeometry relative="1" as="geometry" />
        </mxCell>
        <mxCell id="n6rH_P_T9cfDyiBXCp7v-85" value="" style="edgeStyle=orthogonalEdgeStyle;rounded=0;orthogonalLoop=1;jettySize=auto;html=1;entryX=0.5;entryY=1;entryDx=0;entryDy=0;" edge="1" parent="1" source="n6rH_P_T9cfDyiBXCp7v-30" target="n6rH_P_T9cfDyiBXCp7v-23">
          <mxGeometry relative="1" as="geometry">
            <mxPoint x="280" y="1110" as="targetPoint" />
            <Array as="points">
              <mxPoint x="280" y="1290" />
              <mxPoint x="-322" y="1290" />
            </Array>
          </mxGeometry>
        </mxCell>
        <mxCell id="n6rH_P_T9cfDyiBXCp7v-30" value="&lt;font style=&quot;font-size: 15px;&quot;&gt;Student&lt;/font&gt;" style="whiteSpace=wrap;html=1;aspect=fixed;fillColor=#dae8fc;strokeColor=#6c8ebf;" vertex="1" parent="1">
          <mxGeometry x="220" y="880" width="120" height="120" as="geometry" />
        </mxCell>
        <mxCell id="n6rH_P_T9cfDyiBXCp7v-33" value="&lt;font style=&quot;font-size: 15px;&quot;&gt;Course&lt;/font&gt;" style="whiteSpace=wrap;html=1;aspect=fixed;fillColor=#dae8fc;strokeColor=#6c8ebf;" vertex="1" parent="1">
          <mxGeometry x="10" y="880" width="120" height="120" as="geometry" />
        </mxCell>
        <mxCell id="n6rH_P_T9cfDyiBXCp7v-67" value="" style="edgeStyle=orthogonalEdgeStyle;rounded=0;orthogonalLoop=1;jettySize=auto;html=1;entryX=0;entryY=0.5;entryDx=0;entryDy=0;" edge="1" parent="1" source="n6rH_P_T9cfDyiBXCp7v-65" target="n6rH_P_T9cfDyiBXCp7v-69">
          <mxGeometry relative="1" as="geometry">
            <mxPoint x="-162" y="320" as="targetPoint" />
          </mxGeometry>
        </mxCell>
        <mxCell id="n6rH_P_T9cfDyiBXCp7v-75" value="" style="edgeStyle=orthogonalEdgeStyle;rounded=0;orthogonalLoop=1;jettySize=auto;html=1;entryX=1;entryY=0.5;entryDx=0;entryDy=0;" edge="1" parent="1" source="n6rH_P_T9cfDyiBXCp7v-65" target="n6rH_P_T9cfDyiBXCp7v-73">
          <mxGeometry relative="1" as="geometry">
            <mxPoint x="-482" y="320" as="targetPoint" />
          </mxGeometry>
        </mxCell>
        <mxCell id="n6rH_P_T9cfDyiBXCp7v-65" value="&lt;font style=&quot;font-size: 15px;&quot;&gt;Grade&lt;/font&gt;" style="whiteSpace=wrap;html=1;aspect=fixed;fillColor=#dae8fc;strokeColor=#6c8ebf;" vertex="1" parent="1">
          <mxGeometry x="-382" y="260" width="120" height="120" as="geometry" />
        </mxCell>
        <mxCell id="n6rH_P_T9cfDyiBXCp7v-69" value="&lt;font style=&quot;font-size: 15px;&quot;&gt;Date&lt;/font&gt;" style="whiteSpace=wrap;html=1;aspect=fixed;fillColor=#dae8fc;strokeColor=#6c8ebf;" vertex="1" parent="1">
          <mxGeometry x="-130" y="260" width="120" height="120" as="geometry" />
        </mxCell>
        <mxCell id="n6rH_P_T9cfDyiBXCp7v-73" value="- Set Letter Grade" style="whiteSpace=wrap;html=1;aspect=fixed;" vertex="1" parent="1">
          <mxGeometry x="-587" y="280" width="80" height="80" as="geometry" />
        </mxCell>
        <mxCell id="n6rH_P_T9cfDyiBXCp7v-83" value="" style="edgeStyle=orthogonalEdgeStyle;rounded=0;orthogonalLoop=1;jettySize=auto;html=1;entryX=0.5;entryY=1;entryDx=0;entryDy=0;" edge="1" parent="1" source="n6rH_P_T9cfDyiBXCp7v-79" target="n6rH_P_T9cfDyiBXCp7v-33">
          <mxGeometry relative="1" as="geometry">
            <mxPoint x="70" y="1010" as="targetPoint" />
          </mxGeometry>
        </mxCell>
        <mxCell id="n6rH_P_T9cfDyiBXCp7v-79" value="&lt;div&gt;Update Course Info&lt;/div&gt;&lt;div&gt;&lt;br&gt;&lt;/div&gt;" style="whiteSpace=wrap;html=1;aspect=fixed;" vertex="1" parent="1">
          <mxGeometry x="-250" y="1140" width="80" height="80" as="geometry" />
        </mxCell>
      </root>
    </mxGraphModel>
  </diagram>
</mxfile>
